<svg width="40" height="40" fill="none" xmlns="http://www.w3.org/2000/svg"><path d="M37.42 3.742v32.516c0 .642-.52 1.161-1.162 1.161H3.742c-.641 0-1.161-.52-1.161-1.161V3.742c0-.641.52-1.161 1.161-1.161h32.516c.642 0 1.161.52 1.161 1.16Z" stroke="url(#a)" stroke-width="4" stroke-linecap="round" stroke-linejoin="round"/><path d="M23.871 16.129v-.387a3.484 3.484 0 0 0-3.484-3.484h-.774a3.484 3.484 0 0 0-3.484 3.484v8.516a3.484 3.484 0 0 0 3.484 3.484h.774a3.484 3.484 0 0 0 3.484-3.484v-.387" stroke="url(#b)" stroke-width="3" stroke-linecap="round" stroke-linejoin="round"/><defs><linearGradient id="a" x1="2.581" y1="4.613" x2="40.937" y2="10.55" gradientUnits="userSpaceOnUse"><stop stop-color="#97BC5D"/><stop offset="1" stop-color="#C0D997"/></linearGradient><linearGradient id="b" x1="16.129" y1="13.161" x2="24.805" y2="13.833" gradientUnits="userSpaceOnUse"><stop stop-color="#97BC5D"/><stop offset="1" stop-color="#C0D997"/></linearGradient></defs></svg>