<svg width="40" height="40" fill="none" xmlns="http://www.w3.org/2000/svg"><g clip-path="url(#a)"><path d="M4.785 31.217h8.299m23.515-16.825H3.4 36.6Zm0 0c1.528 0 2.766-1.256 2.766-2.805V5.98c0-1.549-1.239-2.804-2.766-2.804H3.4C1.873 3.175.635 4.43.635 5.979v5.608c0 1.549 1.238 2.805 2.766 2.805H36.6Zm0 0c1.528 0 2.766 1.255 2.766 2.804v5.608c0 1.549-1.239 2.805-2.766 2.805V14.391Zm-33.198 0c-1.528 0-2.766 1.255-2.766 2.804v5.608c0 1.549 1.238 2.805 2.766 2.805V14.391ZM36.6 25.608H3.4 36.6Zm0 0c1.528 0 2.766 1.256 2.766 2.805v5.608c0 1.549-1.239 2.804-2.766 2.804H3.4c-1.528 0-2.766-1.255-2.766-2.804v-5.608c0-1.549 1.238-2.805 2.766-2.805H36.6ZM4.785 8.784h8.299-8.3Zm0 11.217h8.299-8.3Z" stroke="url(#b)" stroke-width="3"/></g><defs><linearGradient id="b" x1=".635" y1="5.138" x2="42.954" y2="12.676" gradientUnits="userSpaceOnUse"><stop stop-color="#97BC5D"/><stop offset="1" stop-color="#C0D997"/></linearGradient><clipPath id="a"><path fill="#fff" d="M0 0h40v40H0z"/></clipPath></defs></svg>