<svg width="120" height="56" fill="none" xmlns="http://www.w3.org/2000/svg"><g filter="url(#a)" fill="#3C3F34"><path d="M48.276 16c2.265 0 3.422 1.256 3.422 3.56v3.901l-3.27-.9v-2.268c0-.628-.302-.995-.956-.995h-1.158c-.603 0-.956.367-.956.995v3.456l6.34 1.78v6.848c0 2.356-1.258 3.57-3.472 3.57H45.56c-2.214 0-3.422-1.256-3.422-3.56v-3.822l3.27 1.047v2.095c0 .68.353.995.957.995h1.157c.604 0 .956-.315.956-.995l-.05-3.351-6.29-1.885V19.56c0-2.356 1.208-3.56 3.422-3.56h2.716ZM60.855 16h-6.138V36h3.27v-6.72h2.868c2.265 0 3.422-1.259 3.422-3.569V19.57c0-2.31-1.208-3.57-3.422-3.57Zm.151 8.976c0 .63-.302.998-.956.998h-2.113v-6.667h2.113c.654 0 .956.367.956.998v4.671ZM39.623 16v19.947h-3.02V16h3.02ZM77.358 35.947 73.383 16h-4.126l-3.974 19.947H68.3l.906-3.989h4.277l.654 3.99h3.22Zm-7.597-6.876 1.51-8.714 1.508 8.714h-3.018ZM100 19.15v.157h-6.596v4.987h5.162v3.307H93.403v5.04H100v3.306h-9.56V16H100v3.15ZM87.924 16H77.358v3.392h3.522v11.306H84.402V19.392l3.522.028V16ZM84.402 32.273H80.88v3.674h3.522v-3.674ZM22.873 24.4H20v3.149h3.019v-3.15h-.146ZM30.566 16h-6.038V24.399h3.27v-5.101h2.164c.604 0 .956.367.956.995v11.309c0 .68-.352.995-.956.995H27.8v-5.048h-3.27v8.398h6.037c1.962 0 3.522-1.623 3.522-3.664V19.665c0-2.042-1.61-3.665-3.522-3.665Z"/></g><defs><filter id="a" x="0" y="0" width="120" height="60" filterUnits="userSpaceOnUse" color-interpolation-filters="sRGB"><feFlood flood-opacity="0" result="BackgroundImageFix"/><feColorMatrix in="SourceAlpha" values="0 0 0 0 0 0 0 0 0 0 0 0 0 0 0 0 0 0 127 0" result="hardAlpha"/><feOffset dy="4"/><feGaussianBlur stdDeviation="10"/><feColorMatrix values="0 0 0 0 1 0 0 0 0 1 0 0 0 0 1 0 0 0 0.25 0"/><feBlend in2="BackgroundImageFix" result="effect1_dropShadow_737_494"/><feBlend in="SourceGraphic" in2="effect1_dropShadow_737_494" result="shape"/></filter></defs></svg>