<svg aria-hidden="true" style="position: absolute; width: 0; height: 0; overflow: hidden;" version="1.1" xmlns="http://www.w3.org/2000/svg" xmlns:xlink="http://www.w3.org/1999/xlink">
<defs>
<symbol id="icon-logo" viewBox="0 0 49 32">
<path d="M14.685 18.523c-0.283 0.291-0.458 0.689-0.458 1.128s0.175 0.837 0.458 1.128l-0-0c0.28 0.288 0.672 0.467 1.105 0.467s0.825-0.179 1.105-0.467l0-0 1.92-1.96c1.601 1.122 3.589 1.793 5.734 1.793 0.006 0 0.013 0 0.019-0h-0.001c5.556 0 10.065-4.489 10.065-10.011 0-2.218-0.724-4.272-1.95-5.935l1.902-1.942c0.283-0.291 0.458-0.689 0.458-1.128s-0.175-0.837-0.458-1.128l0 0c-0.28-0.288-0.672-0.467-1.105-0.467s-0.825 0.179-1.105 0.467l-0 0-1.939 1.979c-1.623-1.178-3.655-1.884-5.852-1.884-0.005 0-0.011 0-0.016 0h0.001c-5.568 0-10.074 4.506-10.074 10.038 0 0.003 0 0.007 0 0.011 0 2.277 0.767 4.375 2.057 6.050l-0.017-0.023-1.847 1.885zM21.102 16.485c0.99 0.586 2.181 0.933 3.454 0.933 0.004 0 0.008 0 0.012 0h-0.001c3.784 0 6.856-3.059 6.856-6.818 0-1.321-0.377-2.555-1.028-3.601l-9.294 9.486zM28.157 4.772l-9.347 9.541c-0.694-1.043-1.107-2.326-1.107-3.704 0-0.003 0-0.006 0-0.009v0c0-3.774 3.076-6.844 6.864-6.844 1.316 0 2.545 0.372 3.59 1.015z"></path>
<path d="M1.318 29.508v-4.59h1.581v4.59c0 0.46 0.264 0.918 0.79 0.918s0.79-0.458 0.79-0.918v-4.59h1.581v4.59c-0 1.38-1.063 2.492-2.372 2.492s-2.371-1.112-2.371-2.492zM11.33 31.994v-5.502h-1.318v-1.574h4.216v1.574h-1.318v5.508l-1.581-0.006z"></path>
<path d="M21.736 24.918c-1.963 0-3.557 1.586-3.557 3.541s1.594 3.541 3.557 3.541c1.964 0 3.558-1.586 3.558-3.541 0-1.954-1.593-3.54-3.558-3.54zM21.736 26.584c0.001 0 0.003 0 0.004 0 1.036 0 1.876 0.839 1.879 1.874v0c-0.003 1.036-0.843 1.874-1.879 1.874-0.001 0-0.003 0-0.004 0h0c-0.001 0-0.002 0-0.003 0-1.036 0-1.876-0.839-1.879-1.874v-0c0.003-1.036 0.843-1.874 1.879-1.874 0.001 0 0.002 0 0.003 0h-0z"></path>
<path d="M37.414 24.918v7.082h1.581v-7.082h-1.581z"></path>
<path d="M46.109 30.689l-0.001 1.311h1.581v-4.59c0-1.38-1.063-2.492-2.372-2.492s-2.371 1.112-2.371 2.492v4.59h1.581v-1.311h1.582zM46.108 27.418l0.001 1.697h-1.582v-1.705c0-0.46 0.355-0.826 0.79-0.826s0.79 0.374 0.79 0.835z"></path>
<path d="M10.612 16.982c0.281 0.288 0.454 0.683 0.454 1.117 0 0.43-0.169 0.82-0.445 1.108l0.001-0.001c-0.275 0.287-0.661 0.465-1.089 0.465-0.423 0-0.806-0.175-1.080-0.456l-0-0-8.452-8.595 8.452-8.592c0.274-0.281 0.657-0.456 1.080-0.456 0.428 0 0.815 0.179 1.089 0.465l0.001 0.001c0.275 0.287 0.444 0.677 0.444 1.107 0 0.435-0.173 0.829-0.454 1.118l0-0-6.254 6.358 6.255 6.36zM38.648 19.207c-0.275-0.287-0.444-0.678-0.444-1.108 0-0.435 0.173-0.829 0.454-1.117l-0 0 6.254-6.36-6.254-6.358c-0.281-0.288-0.454-0.683-0.454-1.117 0-0.43 0.169-0.82 0.445-1.108l-0.001 0.001c0.275-0.287 0.662-0.466 1.090-0.466 0.423 0 0.806 0.175 1.080 0.455l0 0 8.452 8.592-8.452 8.595c-0.274 0.281-0.657 0.456-1.080 0.456-0.428 0-0.814-0.178-1.089-0.465l-0.001-0.001z"></path>
<path d="M29.246 32v-7.082l2.349 0.002c1.035 0.029 1.867 0.95 1.867 2.082 0 1.094-0.821 2.113-1.844 2.113h-0.79v2.886h-1.581zM32.144 27.016c0 0.45-0.249 0.771-0.658 0.787h-0.659v-1.574h0.659c0.423 0 0.658 0.327 0.658 0.787z"></path>
<path d="M47.953 0c0.221 0 0.437 0.057 0.648 0.17s0.375 0.274 0.493 0.485c0.117 0.21 0.176 0.429 0.176 0.657 0 0.226-0.058 0.443-0.175 0.652s-0.277 0.371-0.487 0.487c-0.208 0.115-0.427 0.172-0.655 0.172s-0.447-0.057-0.656-0.172c-0.207-0.115-0.373-0.28-0.484-0.48l-0.003-0.006c-0.109-0.187-0.174-0.412-0.174-0.651v-0c0-0.229 0.058-0.447 0.176-0.657s0.283-0.372 0.494-0.485c0.211-0.113 0.427-0.17 0.648-0.17zM47.953 0.217c-0.185 0-0.366 0.047-0.541 0.142s-0.314 0.233-0.408 0.4l-0.003 0.005c-0.093 0.157-0.148 0.346-0.149 0.547v0c0 0.189 0.049 0.37 0.145 0.543 0.098 0.173 0.234 0.308 0.408 0.405 0.157 0.090 0.346 0.144 0.546 0.144h0c0.189 0 0.372-0.048 0.547-0.144 0.175-0.097 0.31-0.232 0.407-0.405 0.096-0.174 0.145-0.356 0.145-0.544 0-0.19-0.049-0.373-0.148-0.548-0.096-0.173-0.236-0.312-0.405-0.403l-0.005-0.003c-0.176-0.095-0.356-0.142-0.539-0.142zM47.446 2.018v-1.412h0.419c0.167 0 0.285 0.034 0.36 0.060 0.075 0.025 0.134 0.071 0.178 0.136 0.041 0.057 0.066 0.129 0.067 0.207v0c0 0.103-0.037 0.193-0.112 0.269s-0.178 0.124-0.292 0.128l-0.001 0c0.050 0.021 0.090 0.046 0.12 0.075 0.057 0.056 0.127 0.149 0.209 0.279l0.168 0.257h-0.304l-0.096-0.203c-0.099-0.175-0.178-0.284-0.239-0.328-0.042-0.032-0.092-0.074-0.173-0.074l-0.102-0.007v0.612h-0.202zM47.648 1.21h0.203c0.133 0 0.254 0.013 0.301-0.027 0.049-0.039 0.071-0.11 0.071-0.175 0-0.076-0.062-0.141-0.131-0.167-0.069-0.025-0.149-0.040-0.232-0.040-0.003 0-0.007 0-0.010 0h-0.203v0.409z"></path>
</symbol>
</defs>
</svg>
