<svg width="62" height="62" fill="none" xmlns="http://www.w3.org/2000/svg"><path d="M47.63 17.178c-.57-.691-1.106-1.344-1.363-1.963-.276-.664-.363-1.539-.462-2.463-.157-1.53-.338-3.27-1.513-4.44-1.174-1.171-2.906-1.355-4.44-1.514-.925-.095-1.798-.186-2.464-.461-.618-.257-1.272-.794-1.963-1.364-1.211-.995-2.58-2.122-4.315-2.122-1.735 0-3.106 1.127-4.316 2.122-.691.57-1.344 1.107-1.963 1.364-.664.275-1.539.363-2.463.461-1.53.159-3.27.338-4.44 1.513-1.171 1.174-1.355 2.906-1.514 4.441-.095.924-.186 1.799-.461 2.463-.257.62-.794 1.272-1.364 1.963-.994 1.211-2.121 2.58-2.121 4.316 0 1.737 1.127 3.106 2.121 4.315.57.691 1.107 1.345 1.364 1.963.275.665.363 1.539.461 2.464.159 1.53.338 3.27 1.514 4.44 1.176 1.171 2.906 1.354 4.44 1.513.924.096 1.799.186 2.463.462.62.256 1.272.794 1.963 1.363 1.211.995 2.58 2.123 4.316 2.123 1.735 0 3.106-1.128 4.315-2.123.691-.57 1.345-1.107 1.963-1.363.666-.276 1.539-.363 2.464-.462 1.53-.157 3.27-.338 4.44-1.513 1.171-1.174 1.355-2.906 1.513-4.44.096-.925.186-1.798.462-2.464.257-.618.794-1.272 1.363-1.963.995-1.211 2.122-2.58 2.122-4.315 0-1.735-1.127-3.106-2.122-4.316Zm-1.683 7.245c-.646.785-1.313 1.597-1.696 2.514-.397.96-.508 2.035-.616 3.074-.133 1.283-.258 2.495-.886 3.124-.629.628-1.841.753-3.125.886-1.039.108-2.114.22-3.073.617-.918.38-1.73 1.047-2.513 1.695-1.017.837-1.976 1.626-2.93 1.626-.954 0-1.915-.79-2.93-1.626-.785-.645-1.597-1.313-2.513-1.695-.96-.398-2.035-.509-3.075-.617-1.284-.133-2.496-.258-3.124-.886-.629-.629-.753-1.84-.885-3.124-.108-1.04-.22-2.115-.618-3.074-.38-.918-1.047-1.729-1.695-2.514-.831-1.015-1.616-1.975-1.616-2.929 0-.954.79-1.914 1.625-2.93.646-.785 1.313-1.596 1.696-2.514.398-.958.51-2.033.617-3.074.132-1.283.258-2.495.887-3.124.628-.628 1.835-.753 3.115-.891 1.04-.102 2.111-.213 3.08-.605.916-.38 1.728-1.048 2.512-1.696 1.017-.835 1.977-1.626 2.931-1.626s1.913.79 2.93 1.626c.784.646 1.595 1.313 2.513 1.696.96.398 2.035.51 3.074.616 1.283.133 2.495.259 3.124.886.628.627.753 1.84.886 3.124.108 1.04.22 2.116.616 3.074.38.918 1.048 1.73 1.696 2.514.837 1.016 1.626 1.976 1.626 2.93 0 .954-.797 1.907-1.633 2.923Z" fill="url(#a)"/><path d="M31.363 11.476a10.279 10.279 0 1 0-.003 20.558 10.279 10.279 0 0 0 .003-20.558Zm5.545 8.194c-3.903 1.997-6.407 6.208-6.432 6.25a1.27 1.27 0 0 1-2.014.235l-2.837-2.963a1.274 1.274 0 0 1 1.84-1.758l1.746 1.823c1.187-1.617 3.462-4.274 6.54-5.851a1.272 1.272 0 0 1 1.158 2.265Z" fill="url(#b)"/><path d="M41.502 42.452c-2.25-.108-6.473.146-9.483 3.048a9.68 9.68 0 0 0-.871.969 9.669 9.669 0 0 0-.872-.97c-3.01-2.905-7.233-3.155-9.483-3.047a2.89 2.89 0 0 0-2.761 2.76c-.107 2.25.146 6.473 3.048 9.482 2.092 2.17 5.144 3.3 9.082 3.36.114 0 2.268 0 2.577-.016 3.646-.164 6.494-1.285 8.476-3.343 2.907-3.01 3.156-7.233 3.05-9.482a2.89 2.89 0 0 0-2.763-2.761ZM27.544 50.98l-.673 2.034c.104.036 2.125.748 3.155 2.856-3.249-.078-5.731-.982-7.377-2.689-2.333-2.422-2.53-5.968-2.44-7.871a.72.72 0 0 1 .688-.687c1.898-.09 5.45.107 7.871 2.44 1.635 1.575 2.531 3.918 2.674 6.967a8.205 8.205 0 0 0-3.898-3.05Zm12.1 2.197c-1.417 1.473-3.46 2.346-6.08 2.609.047-.204.07-.412.073-.62.028-2.602-.39-4.836-1.25-6.68a7.496 7.496 0 0 1 1.145-1.421c2.143-2.066 5.168-2.457 7.152-2.457.257 0 .496 0 .714.017a.72.72 0 0 1 .688.686c.09 1.903-.106 5.45-2.441 7.87v-.004Z" fill="url(#c)"/><defs><linearGradient id="a" x1="12.468" y1="5.026" x2="53.517" y2="11.379" gradientUnits="userSpaceOnUse"><stop stop-color="#97BC5D"/><stop offset="1" stop-color="#C0D997"/></linearGradient><linearGradient id="b" x1="21.082" y1="12.675" x2="43.718" y2="16.179" gradientUnits="userSpaceOnUse"><stop stop-color="#97BC5D"/><stop offset="1" stop-color="#C0D997"/></linearGradient><linearGradient id="c" x1="18.013" y1="43.344" x2="45.75" y2="50.563" gradientUnits="userSpaceOnUse"><stop stop-color="#97BC5D"/><stop offset="1" stop-color="#C0D997"/></linearGradient></defs></svg>