<svg width="62" height="62" fill="none" xmlns="http://www.w3.org/2000/svg"><path d="M24.087 18.807h1a3.731 3.731 0 0 0 3.726-3.726v-.041h-2.18v.041a1.55 1.55 0 0 1-1.546 1.546h-1a1.55 1.55 0 0 1-1.547-1.546v-3.848a1.549 1.549 0 0 1 1.547-1.546h1a1.549 1.549 0 0 1 1.546 1.547h2.18a3.73 3.73 0 0 0-3.726-3.726h-1a3.73 3.73 0 0 0-3.726 3.726v3.848a3.73 3.73 0 0 0 3.726 3.725Z" fill="url(#a)"/><path d="M34.327 18.807a4.231 4.231 0 0 0 4.226-4.226v-2.848a4.226 4.226 0 1 0-8.453 0v2.848a4.23 4.23 0 0 0 4.227 4.226Zm-2.047-7.074a2.046 2.046 0 1 1 4.093 0v2.848a2.046 2.046 0 1 1-4.093 0v-2.848Z" fill="url(#b)"/><path d="m43.933 18.8-2.075.659a2.475 2.475 0 0 0 .749 4.834h3.318v-2.18h-3.318a.296.296 0 0 1-.088-.576l2.074-.66a2.62 2.62 0 0 0 1.833-2.505v-.258a2.633 2.633 0 0 0-2.63-2.629h-1.034a2.632 2.632 0 0 0-2.63 2.63v.318h2.18v-.319a.45.45 0 0 1 .45-.449h1.034a.45.45 0 0 1 .45.45v.257a.446.446 0 0 1-.313.428Z" fill="url(#c)"/><path d="M27.509 23.872a8.434 8.434 0 0 1 8.06 6.045 3.114 3.114 0 0 0 3.027 2.253h.017a6.43 6.43 0 0 1 6.428 6.539 6.256 6.256 0 0 1-.614 2.584c.71.178 1.388.464 2.011.848a8.4 8.4 0 0 0 .78-3.391 8.61 8.61 0 0 0-8.607-8.755h-.022a.952.952 0 0 1-.929-.69 10.576 10.576 0 0 0-20.306 0 .954.954 0 0 1-.93.68h-.02A8.607 8.607 0 0 0 7.8 38.75c.077 4.664 3.996 8.46 8.73 8.46h3.467c.121-.76.363-1.495.717-2.179H16.53c-3.554 0-6.493-2.835-6.55-6.317a6.43 6.43 0 0 1 6.427-6.54h.022c.213 0 .427-.021.637-.064a4.488 4.488 0 0 1 1.216 3.028l2.462-.07a6.855 6.855 0 0 0-1.642-4.36c.15-.242.267-.504.347-.777a8.435 8.435 0 0 1 8.06-6.059Z" fill="url(#d)"/><path d="M42.894 43.15a3.986 3.986 0 0 0-1.615 3.154l-2.18-.062a6.086 6.086 0 0 1 2.058-4.48 6.606 6.606 0 0 0-12.567.363 1.424 1.424 0 0 1-1.378 1.022H27.2a5.234 5.234 0 0 0-5.235 5.328c.047 2.871 2.45 5.146 5.321 5.146h15.288c2.871 0 5.274-2.275 5.322-5.146a5.235 5.235 0 0 0-5.002-5.326Z" fill="url(#e)"/><defs><linearGradient id="a" x1="20.361" y1="8.167" x2="29.763" y2="9.256" gradientUnits="userSpaceOnUse"><stop stop-color="#97BC5D"/><stop offset="1" stop-color="#C0D997"/></linearGradient><linearGradient id="b" x1="30.1" y1="8.166" x2="39.503" y2="9.254" gradientUnits="userSpaceOnUse"><stop stop-color="#97BC5D"/><stop offset="1" stop-color="#C0D997"/></linearGradient><linearGradient id="c" x1="40.133" y1="15.999" x2="47.142" y2="16.774" gradientUnits="userSpaceOnUse"><stop stop-color="#97BC5D"/><stop offset="1" stop-color="#C0D997"/></linearGradient><linearGradient id="d" x1="7.798" y1="23.176" x2="49.837" y2="33.226" gradientUnits="userSpaceOnUse"><stop stop-color="#97BC5D"/><stop offset="1" stop-color="#C0D997"/></linearGradient><linearGradient id="e" x1="21.964" y1="38.314" x2="49.519" y2="45.118" gradientUnits="userSpaceOnUse"><stop stop-color="#97BC5D"/><stop offset="1" stop-color="#C0D997"/></linearGradient></defs></svg>