<svg width="62" height="62" fill="none" xmlns="http://www.w3.org/2000/svg"><path d="M41.081 21.971a9.93 9.93 0 1 0-9.93 9.93 9.938 9.938 0 0 0 9.93-9.93Zm-12.918 5.057V24.97h3.027a.921.921 0 0 0 .92-.92v-.274a.921.921 0 0 0-.92-.92h-.03a2.979 2.979 0 0 1-1.03-5.774v-1.475h2.06v1.292h2.08v2.058h-3.111a.92.92 0 0 0 0 1.84h.03a2.983 2.983 0 0 1 2.979 2.979v.273a2.984 2.984 0 0 1-1.98 2.806v1.588h-2.059v-1.415h-1.966Z" fill="url(#a)"/><path d="M41.52 39.234c-2.2-.104-6.283.139-9.276 2.858v-5.596a14.444 14.444 0 1 0-2.18 0v5.57c-2.991-2.7-7.06-2.94-9.253-2.835a2.892 2.892 0 0 0-2.76 2.76c-.107 2.25.147 6.474 3.048 9.484 2.09 2.168 5.14 3.297 9.073 3.36.12 0 2.241 0 2.535-.016 3.67-.155 6.533-1.277 8.527-3.344 2.906-3.01 3.154-7.233 3.048-9.483a2.89 2.89 0 0 0-2.761-2.758ZM19.29 21.971A11.867 11.867 0 1 1 31.156 33.84 11.879 11.879 0 0 1 19.29 21.97Zm.934 20.122a.726.726 0 0 1 .688-.687c1.898-.09 5.449.106 7.87 2.44 1.593 1.535 2.485 3.796 2.665 6.73a8.992 8.992 0 0 0-4.246-3.308l-.736 2.227c.114.04 2.34.824 3.468 3.148-3.192-.097-5.636-.999-7.266-2.686-2.332-2.418-2.528-5.965-2.443-7.864Zm19.436 7.871c-1.419 1.472-3.462 2.346-6.08 2.609a3.07 3.07 0 0 0 .072-.621c.029-2.601-.39-4.834-1.249-6.68a7.439 7.439 0 0 1 1.145-1.42c2.142-2.066 5.168-2.458 7.151-2.458.257 0 .497.007.715.017a.727.727 0 0 1 .687.687c.095 1.894-.102 5.441-2.436 7.862l-.005.005Z" fill="url(#b)"/><defs><linearGradient id="a" x1="21.222" y1="13.2" x2="43.086" y2="16.584" gradientUnits="userSpaceOnUse"><stop stop-color="#97BC5D"/><stop offset="1" stop-color="#C0D997"/></linearGradient><linearGradient id="b" x1="16.71" y1="10.402" x2="48.987" y2="13.461" gradientUnits="userSpaceOnUse"><stop stop-color="#97BC5D"/><stop offset="1" stop-color="#C0D997"/></linearGradient></defs></svg>