<svg width="62" height="62" fill="none" xmlns="http://www.w3.org/2000/svg"><path d="M36.957 18.62a1.265 1.265 0 0 0-1.185-1.718h-8.234a1.27 1.27 0 0 0-1.24 1.004l-3.557 16.745a1.267 1.267 0 0 0 1.236 1.53h5.376a1.267 1.267 0 0 1 1.245 1.508l-1.332 6.903c-.242 1.26 1.464 1.893 2.102.78l8.472-14.76a1.268 1.268 0 0 0-1.1-1.9h-3.78a1.267 1.267 0 0 1-1.186-1.718l3.183-8.373Z" fill="url(#a)"/><path d="M48.94 48.944a25.526 25.526 0 0 0 5.552-27.098C49.394 8.744 34.586 2.232 21.482 7.331l.79 2.032c11.99-4.663 25.526 1.29 30.19 13.274a23.343 23.343 0 0 1-5.087 24.786l-1.55-1.51a1.151 1.151 0 0 0-1.955.84l.058 4.104a1.152 1.152 0 0 0 1.165 1.135l4.104-.049a1.152 1.152 0 0 0 .79-1.976l-1.047-1.023Z" fill="url(#b)"/><path d="M22.02 52.191a23.302 23.302 0 0 1-7.265-37.66l1.373 1.332a1.152 1.152 0 0 0 1.956-.84l-.058-4.104a1.149 1.149 0 0 0-1.165-1.135l-4.104.049a1.152 1.152 0 0 0-.793 1.983l1.227 1.195a25.494 25.494 0 0 0 27.459 41.61l-.79-2.03a23.163 23.163 0 0 1-17.84-.4Z" fill="url(#c)"/><defs><linearGradient id="a" x1="22.714" y1="18.596" x2="42.046" y2="20.378" gradientUnits="userSpaceOnUse"><stop stop-color="#97BC5D"/><stop offset="1" stop-color="#C0D997"/></linearGradient><linearGradient id="b" x1="21.482" y1="8.301" x2="60.129" y2="12.78" gradientUnits="userSpaceOnUse"><stop stop-color="#97BC5D"/><stop offset="1" stop-color="#C0D997"/></linearGradient><linearGradient id="c" x1="5.889" y1="12.501" x2="44.561" y2="16.968" gradientUnits="userSpaceOnUse"><stop stop-color="#97BC5D"/><stop offset="1" stop-color="#C0D997"/></linearGradient></defs></svg>